<svg width="108" height="108" viewBox="0 0 108 108" fill="none" xmlns="http://www.w3.org/2000/svg">
  <path fill="#FFFFFF" fill-rule="evenodd" clip-rule="evenodd" d="M0 0H108V108H0V0Z M71.86,31.36 C60.61,35.58 48.94,46.13 41.91,57.38 C36.28,66.52 33.47,74.25 32.77,78.47 C36.98,77.77 44.72,74.95 53.86,69.33 C65.11,62.30 74.95,51.05 79.17,39.80 C80.58,36.28 79.88,33.47 77.06,31.36 C74.95,29.95 73.27,30.66 71.86,31.36 Z"/>
  <path d="M67.29,38.74C62.80,41.65,59.41,43.74,53.67,50.20C49.14,55.30,46.61,59.38,44.93,61.80" stroke="#FFFFFF" stroke-width="2.67" stroke-linecap="round" stroke-linejoin="round"/>
</svg>
